<?xml version="1.0" standalone="no"?>
<!DOCTYPE svg PUBLIC "-//W3C//DTD SVG 20010904//EN"
 "http://www.w3.org/TR/2001/REC-SVG-20010904/DTD/svg10.dtd">
<svg version="1.0" xmlns="http://www.w3.org/2000/svg"
 width="440.000000pt" height="440.000000pt" viewBox="0 0 440.000000 440.000000"
 preserveAspectRatio="xMidYMid meet">
<metadata>
Created by potrace 1.11, written by Peter Selinger 2001-2013
</metadata>
<g transform="translate(0.000000,440.000000) scale(0.100000,-0.100000)"
fill="#000000" stroke="none">
<path d="M3090 3863 c-49 -6 -63 -23 -19 -23 18 -1 48 -7 64 -15 28 -12 23
-13 -68 -14 -96 -1 -101 -2 -160 -38 -62 -38 -256 -223 -234 -223 6 0 -12 -21
-41 -46 -79 -69 -83 -86 -14 -53 78 36 382 102 398 86 3 -2 -25 -12 -62 -21
-93 -23 -163 -60 -229 -119 -31 -27 -54 -51 -52 -53 2 -3 42 16 88 40 257 137
540 140 797 8 165 -84 217 -202 149 -337 -62 -124 -225 -295 -359 -380 -43
-27 -76 -50 -73 -53 2 -2 28 10 57 28 239 147 430 396 415 540 -9 83 -46 219
-81 300 -40 92 -30 98 15 8 34 -67 63 -170 78 -278 8 -57 6 -82 -6 -123 -36
-122 -149 -267 -298 -381 -116 -90 -132 -98 -192 -102 -63 -3 -65 -9 37 102
36 39 76 93 89 119 59 119 80 308 42 390 -23 50 -79 101 -130 116 -49 15 -123
4 -145 -20 -16 -18 -15 -19 26 -25 24 -3 67 -8 95 -10 60 -4 80 -17 100 -63
28 -69 5 -185 -69 -340 -40 -83 -121 -223 -129 -223 -3 0 -11 37 -18 83 -14
92 -47 215 -64 235 -6 8 -27 22 -47 32 l-37 19 -50 -34 c-58 -39 -121 -109
-130 -144 -4 -15 1 -37 12 -58 18 -32 86 -102 131 -133 11 -8 21 -22 21 -31 0
-13 -7 -14 -41 -8 -60 12 -205 11 -250 -2 -35 -10 -42 -9 -53 7 -25 34 -16 44
40 44 49 -1 222 -22 277 -35 14 -3 7 1 -14 10 -44 17 -180 35 -266 35 l-55 0
-30 75 c-24 61 -31 71 -37 54 -11 -30 -87 -125 -153 -192 -46 -47 -60 -56 -71
-46 -15 12 -9 33 7 23 6 -3 13 3 16 14 2 11 13 22 24 25 10 3 22 13 26 24 4
10 19 36 33 58 64 99 65 155 4 283 -25 53 -66 142 -91 197 -25 55 -55 110 -66
123 -36 39 -8 24 46 -25 42 -39 -4 14 -127 142 -5 6 0 -3 11 -20 37 -56 244
-501 249 -537 10 -60 -69 -203 -147 -266 -46 -37 -34 -11 31 68 82 101 109
188 75 237 l-15 21 -60 -25 c-64 -25 -130 -28 -138 -5 -2 8 9 12 40 12 24 0
66 8 93 18 43 16 50 22 48 43 -1 26 -181 402 -205 429 -17 21 -60 50 -72 50
-5 0 -1 -6 9 -14 16 -12 17 -16 6 -30 -20 -23 -28 -20 -35 16 -3 17 -8 29 -10
27 -2 -2 11 -71 29 -154 18 -82 49 -229 70 -325 20 -96 40 -187 45 -202 5 -16
7 -28 5 -28 -18 0 -51 115 -100 350 -31 151 -59 277 -62 280 -6 5 0 -34 13
-85 6 -25 5 -26 -15 -15 -82 43 -267 74 -408 67 l-114 -5 19 31 c75 125 122
209 122 220 0 6 -10 -6 -21 -28 -53 -99 -131 -225 -140 -225 -14 0 -13 2 56
116 35 59 62 111 59 116 -9 15 -56 8 -90 -12 -18 -12 -86 -80 -151 -152 -65
-72 -131 -144 -147 -160 -27 -26 -46 -35 -46 -22 0 8 307 339 333 358 30 23 0
8 -42 -21 -19 -13 -30 -23 -25 -23 5 0 -19 -28 -53 -62 -33 -35 -108 -116
-166 -182 -58 -65 -123 -130 -143 -145 -21 -14 -58 -48 -83 -74 -56 -60 -78
-71 -162 -86 -70 -12 -166 1 -217 28 -36 19 -39 4 -6 -30 36 -39 114 -77 177
-85 46 -6 58 -16 36 -30 -19 -11 -81 -153 -100 -229 -10 -38 -22 -71 -27 -73
-5 -1 -18 -10 -28 -18 -18 -14 -18 -14 4 -4 48 23 31 1 -30 -40 -35 -23 -92
-70 -127 -104 -63 -61 -64 -61 -33 -16 46 66 53 74 97 103 55 37 37 34 -27 -5
-76 -45 -165 -117 -224 -180 -48 -51 -104 -142 -104 -169 0 -7 14 17 32 52 22
44 57 88 112 142 83 80 144 126 101 76 -12 -13 -49 -55 -84 -92 -34 -38 -83
-100 -108 -138 -25 -38 -50 -66 -56 -62 -19 12 0 -148 23 -201 41 -92 152
-187 215 -185 11 0 -1 7 -26 15 -51 15 -132 81 -154 125 -24 46 -18 43 43 -19
41 -43 71 -64 107 -77 28 -9 61 -22 75 -28 22 -9 23 -11 6 -15 -12 -3 -15 -7
-7 -11 6 -4 -10 -13 -37 -19 -26 -7 -61 -24 -77 -37 l-30 -25 35 -31 c67 -59
82 -62 135 -32 46 26 47 26 40 4 -9 -30 -7 -168 4 -211 6 -24 7 3 5 85 -3 124
-2 124 20 -10 10 -61 22 -93 50 -135 22 -34 32 -56 25 -59 -7 -2 -20 7 -29 19
-10 13 -22 20 -28 16 -6 -3 -15 6 -20 21 -6 16 -11 22 -11 15 -2 -22 28 -70
46 -76 51 -14 83 -17 83 -7 0 6 6 8 14 5 7 -3 51 8 98 24 48 17 96 28 111 25
14 -3 33 0 44 6 15 9 12 10 -19 11 -46 0 -49 15 -8 38 17 10 35 31 41 50 10
31 8 35 -55 112 -37 44 -63 80 -59 80 4 0 26 -16 48 -34 l40 -34 39 20 39 20
-39 34 c-21 19 -73 50 -114 70 -41 19 -83 40 -93 45 -10 5 -23 7 -29 3 -6 -4
-26 -10 -45 -14 -30 -7 -36 -5 -45 16 -10 21 -8 28 13 50 13 14 39 35 57 46
33 20 34 20 47 2 40 -56 39 -56 69 -44 31 11 31 17 -9 79 -31 50 -50 51 -107
8 l-43 -33 -1 60 c-1 34 -5 83 -9 109 -7 45 -5 51 29 101 36 53 83 103 89 95
32 -44 37 -64 37 -148 0 -105 18 -162 81 -251 46 -65 151 -146 235 -181 40
-17 54 -27 50 -39 -27 -84 -44 -112 -109 -180 -70 -72 -55 -66 29 13 37 35 43
37 48 21 13 -42 -8 -75 -79 -122 -39 -26 -86 -68 -105 -95 -32 -44 -35 -46
-38 -23 -2 14 -9 29 -15 34 -20 16 -108 52 -102 42 3 -6 29 -20 56 -32 47 -20
50 -23 45 -50 -8 -43 18 -36 53 15 46 68 167 150 182 125 6 -8 9 0 9 22 1 59
13 66 44 22 29 -42 68 -68 85 -58 6 4 11 3 11 -3 0 -6 -10 -15 -21 -22 -22
-11 -38 0 -39 26 0 6 -7 2 -14 -7 -16 -21 -36 -23 -56 -5 -12 10 -12 9 -1 -5
10 -14 9 -17 -6 -22 -10 -3 3 -3 30 -1 42 4 47 2 47 -15 0 -11 -19 -40 -42
-64 -47 -48 -102 -69 -169 -64 l-40 3 33 39 c17 21 52 52 77 67 25 16 40 29
34 29 -18 0 -89 -54 -127 -97 -47 -53 -39 -58 77 -51 l82 6 0 -52 c0 -28 -4
-54 -10 -58 -5 -4 -6 -10 -2 -14 21 -22 127 127 127 179 0 29 20 36 38 14 7
-8 6 -30 -4 -72 -7 -33 -13 -82 -12 -110 1 -45 2 -46 5 -10 1 22 8 66 14 98
11 56 13 58 38 52 14 -4 41 -21 61 -38 20 -18 45 -37 56 -43 21 -12 17 -28
-32 -112 -25 -42 -25 -42 -54 -27 -21 11 -36 12 -55 5 -35 -13 -38 -13 -31 5
3 8 1 15 -4 15 -15 0 -12 -98 4 -129 15 -29 53 -51 89 -51 27 0 64 -28 80 -60
19 -37 34 -35 63 9 15 23 34 41 44 41 9 0 43 9 75 20 32 11 62 17 66 13 4 -5
9 -28 11 -53 2 -37 7 -46 24 -48 31 -4 46 21 52 93 6 87 0 94 -87 87 -40 -2
-71 0 -74 6 -4 5 12 22 34 37 51 36 116 117 124 156 6 24 11 29 28 24 21 -5
21 -5 3 7 -86 59 -116 91 -153 165 -34 70 -38 84 -37 153 1 89 22 154 72 227
19 29 37 53 38 53 2 0 -12 -28 -31 -63 -47 -85 -69 -175 -60 -246 21 -168 154
-299 313 -309 34 -3 62 -8 62 -13 0 -10 -113 0 -165 15 -11 4 -6 0 10 -8 17
-8 51 -15 78 -16 55 0 60 -13 15 -36 -44 -23 -88 -56 -88 -66 0 -4 26 -21 58
-37 l57 -29 27 23 26 22 -39 23 c-22 12 -39 26 -37 32 2 6 29 24 60 41 51 29
58 30 82 18 33 -18 33 -28 -5 -74 l-30 -37 24 -53 c14 -28 29 -70 34 -92 l8
-40 54 -3 c35 -2 65 -11 83 -24 16 -11 39 -20 51 -20 81 1 132 25 143 67 3 14
9 23 13 21 19 -12 64 62 51 84 -5 8 -5 21 1 31 6 12 5 20 -2 25 -8 5 -7 9 4
15 10 6 14 21 13 47 -3 39 -10 45 -39 36 -27 -8 -29 -1 -11 35 9 18 14 35 11
38 -3 3 -58 6 -121 7 -90 1 -115 4 -111 14 2 7 -16 -1 -40 -18 -25 -17 -45
-35 -45 -40 0 -5 -9 -14 -20 -20 -15 -8 -26 -6 -49 8 l-31 19 25 23 c24 23 25
23 45 5 18 -17 20 -17 14 -2 -3 9 -10 17 -15 17 -5 0 -9 3 -9 8 0 10 90 112
99 112 4 0 16 -16 27 -35 21 -40 24 -41 53 -18 l21 18 -31 47 c-25 39 -34 46
-48 38 -24 -13 -72 -59 -98 -95 l-22 -30 -1 68 c0 87 -16 122 -80 185 -37 34
-51 55 -47 66 8 19 3 18 135 46 103 22 104 22 122 2 31 -33 110 -95 115 -90 3
3 -13 18 -36 34 -46 32 -216 216 -232 251 -8 18 -6 27 8 43 18 19 18 19 40
-28 28 -59 95 -148 173 -231 34 -35 60 -68 59 -73 -3 -13 93 -62 172 -89 83
-28 271 -30 371 -5 178 45 317 234 375 506 30 143 4 346 -61 471 -17 33 -11
35 39 14 20 -8 65 -15 99 -15 35 0 75 -6 90 -14 67 -35 158 -59 202 -53 90 13
212 88 273 169 93 123 133 238 133 384 0 116 -22 195 -70 256 -17 20 -30 42
-30 48 0 23 -54 146 -83 190 -17 25 -58 74 -91 110 -34 36 -82 91 -107 122
-25 31 -77 83 -115 115 -223 192 -371 244 -614 216z m140 -87 c43 -13 39 -14
-75 -9 -88 4 -140 1 -194 -11 -41 -9 -76 -14 -78 -12 -2 2 20 16 49 31 50 25
58 26 153 21 55 -3 120 -12 145 -20z m-160 -115 c0 -5 -42 -12 -92 -16 -84 -6
-179 -22 -233 -40 -19 -6 -19 -6 1 12 15 13 52 24 110 32 49 7 94 15 99 16 23
8 115 4 115 -4z m-175 -56 c-8 -4 -76 -19 -185 -42 -51 -11 -3 19 52 32 47 12
159 19 133 10z m-1255 -56 c-7 -11 -18 -28 -27 -37 -8 -9 -34 -50 -56 -91
l-42 -74 -94 -34 c-90 -32 -130 -38 -79 -13 33 17 79 70 71 84 -3 6 -2 8 2 3
8 -7 75 50 75 64 0 10 70 79 80 79 5 0 11 6 13 13 4 9 8 8 17 -3 10 -12 11
-11 7 8 -4 18 -1 22 19 22 22 0 23 -2 14 -21z m560 -159 c19 -27 81 -152 164
-334 20 -43 34 -82 31 -86 -8 -13 -95 -40 -127 -40 -22 0 -31 6 -39 26 -10 27
-85 369 -90 414 -7 55 28 66 61 20z m-285 -76 c93 -19 182 -52 190 -71 3 -9 4
-17 2 -19 -2 -2 -37 10 -78 27 -192 79 -465 87 -624 19 l-48 -20 6 -53 5 -52
-101 -55 c-56 -30 -106 -55 -111 -55 -6 0 -16 20 -23 45 -13 44 -13 45 14 68
96 77 301 168 413 182 83 11 264 2 355 -16z m2066 -35 c15 -31 69 -182 69
-195 0 -2 -4 -4 -9 -4 -5 0 -21 -4 -34 -9 l-25 -10 39 -41 c21 -22 39 -47 39
-54 0 -8 -9 -42 -20 -77 -23 -76 -77 -169 -128 -222 -34 -35 -147 -107 -168
-107 -4 0 17 26 48 58 63 64 114 152 149 257 21 61 24 88 23 210 -1 99 -6 155
-18 190 -9 28 -16 54 -16 59 0 17 32 -18 51 -55z m-2581 -184 c0 -7 -6 -15
-13 -18 -13 -5 -118 -131 -131 -157 -4 -8 7 3 26 25 55 66 120 135 128 135 4
0 11 -7 14 -16 5 -12 -15 -40 -66 -93 -40 -42 -80 -77 -89 -79 -21 -4 -66 33
-86 71 -16 31 -15 31 17 57 65 52 174 108 188 98 6 -6 12 -16 12 -23z m-340
-41 c-67 -68 -116 -97 -197 -120 l-62 -17 -66 32 c-36 18 -65 37 -65 43 0 6 8
7 18 3 52 -20 128 -26 196 -15 81 14 101 24 160 86 24 24 49 44 56 44 8 0 -10
-25 -40 -56z m454 -76 l53 -41 7 -100 c3 -55 5 -102 3 -104 -7 -6 -141 38
-176 58 -18 11 -36 18 -38 15 -3 -2 -7 -32 -10 -65 -5 -57 -14 -74 -27 -52
-10 15 23 152 50 211 28 62 65 120 76 120 5 0 32 -19 62 -42z m1545 -55 c12
-30 56 -205 66 -265 l7 -38 -32 16 c-17 9 -70 54 -118 100 l-87 84 69 65 c37
36 72 65 76 65 4 0 13 -12 19 -27z m-1392 -33 c46 -22 53 -38 53 -122 l0 -58
-34 0 c-26 0 -41 7 -60 31 -22 26 -26 40 -26 93 0 85 3 87 67 56z m759 -83
c-19 -52 -106 -162 -126 -162 -11 0 -19 25 -31 90 -9 50 -19 100 -23 113 -7
20 -4 22 26 22 19 0 58 9 88 19 l54 19 14 -29 c13 -26 13 -35 -2 -72z m-1554
7 c-22 -44 -47 -104 -55 -134 -9 -30 -23 -83 -33 -118 -9 -34 -19 -60 -21 -58
-12 11 23 171 52 244 32 79 81 159 92 149 2 -3 -13 -40 -35 -83z m926 22 c7
-7 15 -36 19 -65 7 -59 -2 -71 -49 -71 -24 0 -28 4 -28 28 0 15 -3 51 -7 80
l-6 53 29 -7 c16 -3 35 -12 42 -18z m367 -18 c14 -6 25 -17 25 -25 0 -7 -2
-13 -4 -13 -2 0 -20 -7 -40 -15 -35 -15 -36 -15 -51 14 -19 37 -19 39 3 44 30
8 40 7 67 -5z m-238 -4 c50 -6 53 -9 63 -43 17 -61 16 -62 -47 -59 -51 3 -59
6 -74 33 -9 17 -20 40 -24 53 -7 25 -3 26 82 16z m149 -29 c18 -44 19 -41 -16
-54 -28 -9 -32 -8 -39 12 -22 58 -22 65 -4 70 37 10 44 6 59 -28z m2021 -70
c-6 -93 -11 -113 -42 -174 -39 -79 -155 -204 -210 -227 -19 -7 -51 -14 -72
-14 -35 0 -113 17 -113 24 0 2 6 19 14 37 7 19 17 61 21 94 7 62 16 75 50 75
36 0 158 66 212 115 29 25 72 75 95 111 23 35 44 64 47 64 2 0 1 -47 -2 -105z
m-2771 78 c-3 -10 -8 -35 -12 -55 -6 -37 -7 -38 -53 -39 -25 -1 -35 -3 -21 -6
70 -11 67 -8 69 -75 2 -111 45 -280 83 -325 18 -22 19 -9 3 37 -21 58 -19 62
10 15 20 -33 101 -93 127 -95 4 0 4 17 1 38 l-6 37 46 -50 45 -50 37 35 c43
41 100 139 131 225 18 50 26 61 47 63 22 3 27 -2 33 -25 3 -15 10 -41 14 -58
16 -55 30 -173 30 -246 0 -68 -3 -78 -56 -178 -31 -58 -65 -116 -77 -128 -11
-13 -17 -23 -13 -23 15 0 66 42 61 50 -3 4 13 41 36 80 37 66 65 124 90 189 5
13 12 22 14 19 10 -9 -78 -213 -107 -250 -16 -21 -24 -38 -17 -38 8 0 8 -4 -1
-15 -19 -23 -11 -24 49 -9 30 8 55 13 56 12 3 -4 -167 -284 -180 -297 -6 -6
-61 -16 -122 -23 l-113 -12 0 -33 c0 -35 -46 -97 -81 -108 -25 -8 -49 11 -49
39 0 25 34 79 43 69 4 -3 7 3 7 14 0 26 -12 35 -75 58 -129 47 -200 89 -276
165 -150 148 -175 245 -85 329 25 23 26 29 26 130 0 67 8 141 20 200 22 105
32 120 174 269 78 81 102 98 92 65z m1292 -115 c37 -114 80 -323 69 -334 -2
-3 -14 39 -27 93 -26 116 -54 200 -86 265 -20 40 -22 51 -12 73 6 14 13 25 14
25 2 0 21 -55 42 -122z m-1279 -96 c-1 -54 -3 -69 -9 -52 -12 37 -12 142 0
135 6 -3 10 -41 9 -83z m-495 -84 c1 -89 8 -154 20 -197 9 -35 16 -73 14 -85
-5 -34 -49 140 -55 219 -6 71 4 211 14 202 2 -3 6 -65 7 -139z m1001 95 c6
-29 4 -33 -15 -33 -16 0 -20 4 -16 16 3 9 6 27 6 42 0 34 16 18 25 -25z m525
-38 c11 10 20 16 21 14 2 -10 8 -37 18 -79 23 -99 7 -301 -36 -435 -28 -90
-126 -266 -139 -252 -5 5 34 79 44 86 9 6 42 65 42 75 0 2 -9 2 -20 -1 -28 -8
-25 6 5 17 19 7 55 63 55 86 0 9 -37 3 -48 -8 -9 -9 -12 -8 -12 4 0 11 10 18
28 20 22 2 30 11 40 42 7 21 10 41 8 43 -9 9 -46 -19 -46 -35 0 -9 -5 -24 -10
-32 -7 -11 -9 -3 -6 26 1 23 6 46 9 51 11 18 16 247 7 286 -6 20 -14 53 -19
71 l-9 35 24 -16 c23 -14 26 -14 44 2z m-1317 -10 c-3 -9 -8 -14 -10 -11 -3 3
-2 9 2 15 9 16 15 13 8 -4z m343 -82 c9 -32 25 -78 35 -103 17 -40 17 -43 1
-21 -27 38 -61 123 -62 154 0 42 8 32 26 -30z m2236 52 c9 -9 -13 -120 -27
-134 -11 -12 -20 -10 -57 11 -24 14 -79 44 -123 68 -44 24 -81 44 -83 45 -1 1
42 0 95 -2 54 -3 116 0 138 5 52 13 51 13 57 7z m-232 -101 c22 -15 38 -29 36
-31 -6 -7 -60 23 -75 41 -19 23 -6 20 39 -10z m-2465 -181 c-4 -10 -11 -33
-17 -51 -5 -18 -14 -30 -20 -26 -12 7 -3 61 13 81 16 19 32 16 24 -4z m1001
-220 c-46 -66 -64 -88 -70 -83 -2 3 16 33 41 68 49 66 75 79 29 15z m-1326
-268 c0 -11 -19 -4 -41 15 l-24 21 33 -16 c17 -8 32 -18 32 -20z m105 -34 c14
-28 14 -30 -6 -36 -19 -6 -48 16 -49 37 0 6 28 26 37 28 1 0 9 -13 18 -29z
m-58 -23 c13 -12 23 -25 23 -29 0 -4 -25 -23 -56 -43 l-56 -35 -39 36 c-45 42
-43 48 33 74 67 23 67 23 95 -3z m662 -96 c-10 -34 -9 -51 6 -107 10 -36 21
-68 25 -70 4 -2 1 19 -7 48 -14 56 -16 99 -6 135 5 21 10 23 37 18 17 -4 34
-10 38 -14 5 -5 -2 -35 -15 -68 -13 -33 -27 -83 -31 -111 l-7 -52 63 25 c107
42 243 113 277 145 18 16 34 29 36 27 1 -2 -4 -17 -11 -35 -10 -23 -40 -50
-106 -93 -84 -56 -91 -75 -10 -29 18 10 35 19 38 19 2 0 -8 -23 -22 -50 -28
-54 -48 -70 -88 -70 -16 0 -26 -6 -26 -15 0 -18 -4 -18 56 0 44 13 51 19 72
64 12 27 22 55 22 63 0 8 3 18 7 21 7 8 24 -28 55 -118 11 -33 24 -65 30 -72
24 -29 -126 -88 -219 -86 -69 2 -149 31 -160 59 -8 22 20 67 49 75 13 4 17 7
10 8 -7 1 -11 4 -8 9 2 4 -14 6 -37 4 -36 -2 -39 -1 -23 9 11 7 40 18 65 25
l46 13 -55 -5 c-30 -2 -60 -1 -65 3 -19 14 -75 152 -75 184 0 29 37 96 47 86
2 -3 -1 -23 -8 -45z m381 -28 c-30 -30 -79 -62 -144 -95 -55 -26 -101 -47
-103 -45 -2 2 21 29 52 61 30 32 55 66 55 76 0 20 6 22 110 37 36 5 67 10 70
11 2 0 -16 -20 -40 -45z m-394 -140 c19 -45 34 -84 34 -88 0 -14 -82 69 -91
92 -6 16 -5 39 2 65 7 23 14 35 16 27 3 -8 20 -51 39 -96z m406 31 c-5 -28
-22 -24 -22 6 0 10 6 19 14 19 9 0 12 -8 8 -25z m-363 -273 c1 -33 -25 -84
-65 -129 l-35 -38 6 54 c6 52 36 111 56 111 5 0 9 3 8 8 -1 4 2 18 7 31 7 23
8 24 15 5 4 -10 8 -30 8 -42z m480 -34 c48 -45 53 -66 26 -118 -18 -34 -79
-91 -144 -135 l-54 -36 -23 28 c-18 23 -30 27 -68 28 -25 0 -46 2 -46 5 0 3
18 32 39 64 22 33 37 64 34 69 -3 6 -2 7 4 4 6 -4 25 12 42 33 25 32 120 99
140 100 2 0 24 -19 50 -42z"/>
<path d="M1201 2482 c-1 -7 3 -21 8 -30 6 -12 -3 -53 -30 -132 -39 -116 -48
-170 -28 -170 14 0 41 65 75 179 26 86 27 94 11 106 -9 6 -21 23 -26 36 -5 13
-10 18 -10 11z"/>
<path d="M1774 2282 c2 -12 -4 -39 -14 -60 -10 -20 -33 -83 -51 -139 -24 -76
-30 -106 -22 -114 16 -16 39 23 79 138 38 110 39 125 18 168 -11 22 -13 24
-10 7z"/>
<path d="M1310 1876 c0 -8 13 -25 29 -38 15 -13 31 -31 34 -39 3 -8 6 -4 6 11
1 14 8 36 17 48 20 29 8 29 -17 0 l-19 -23 -25 28 c-16 18 -25 23 -25 13z"/>
<path d="M2344 2484 c3 -9 9 -34 12 -55 5 -30 11 -39 23 -37 13 3 15 13 12 48
-4 55 -7 60 -33 60 -14 0 -18 -5 -14 -16z"/>
<path d="M2360 2329 c0 -33 3 -40 18 -37 12 2 18 14 20 41 3 32 0 37 -17 37
-18 0 -21 -6 -21 -41z"/>
<path d="M2357 2263 c-2 -5 -7 -25 -11 -45 -6 -33 -4 -38 12 -38 22 0 32 18
32 61 0 27 -22 41 -33 22z"/>
<path d="M1600 3609 c-17 -4 -9 -6 28 -7 28 0 52 1 52 2 0 8 -57 11 -80 5z"/>
<path d="M1390 3500 c-9 -6 -10 -10 -3 -10 6 0 15 5 18 10 8 12 4 12 -15 0z"/>
<path d="M2056 3502 c-2 -4 2 -33 9 -63 11 -42 13 -45 9 -14 -3 22 -7 48 -10
58 -8 25 32 22 89 -6 25 -13 44 -20 40 -14 -16 27 -125 58 -137 39z"/>
<path d="M1325 3470 c-3 -6 1 -7 9 -4 18 7 21 14 7 14 -6 0 -13 -4 -16 -10z"/>
<path d="M1230 3424 c-60 -34 -78 -52 -101 -96 -30 -58 -22 -57 14 2 25 41 45
61 92 87 33 18 56 33 50 33 -5 0 -30 -12 -55 -26z"/>
<path d="M796 3369 c-32 -25 -34 -66 -6 -97 12 -12 30 -22 42 -22 29 0 78 48
78 76 0 25 -43 64 -70 64 -10 0 -29 -9 -44 -21z m88 -15 c22 -22 20 -41 -9
-70 -31 -31 -64 -28 -84 8 -23 41 -3 78 43 78 19 0 42 -7 50 -16z"/>
<path d="M667 3322 c-22 -24 -21 -55 1 -75 24 -22 55 -21 75 1 23 26 21 58 -5
76 -29 21 -51 20 -71 -2z m67 -8 c19 -18 20 -28 6 -55 -19 -35 -80 -18 -80 22
0 21 26 49 45 49 7 0 21 -7 29 -16z"/>
<path d="M1091 3224 c0 -11 3 -14 6 -6 3 7 2 16 -1 19 -3 4 -6 -2 -5 -13z"/>
<path d="M2488 3157 c94 -101 106 -130 101 -240 -3 -42 -1 -70 3 -64 4 7 8 45
8 86 0 98 -19 136 -117 231 l-77 75 82 -88z"/>
<path d="M1082 3180 c0 -14 2 -19 5 -12 2 6 2 18 0 25 -3 6 -5 1 -5 -13z"/>
<path d="M726 3105 c-11 -29 -7 -44 15 -56 18 -9 25 -7 43 10 16 17 18 25 10
39 -15 23 -60 28 -68 7z m61 -11 c3 -8 -2 -23 -11 -32 -15 -15 -17 -15 -32 0
-21 21 -11 48 16 48 11 0 23 -7 27 -16z"/>
<path d="M683 2890 c-12 -5 -25 -20 -29 -34 -6 -27 10 -66 28 -66 7 0 2 -9
-10 -20 -27 -26 -28 -42 -1 -66 23 -21 51 -10 58 22 2 10 8 25 14 32 6 8 12
34 13 58 2 34 -2 49 -18 64 -24 22 -24 22 -55 10z m56 -28 c8 -16 6 -55 -5
-91 -5 -17 -60 31 -70 61 -13 41 55 68 75 30z m-25 -117 c2 -7 -1 -21 -9 -31
-11 -15 -15 -16 -29 -5 -19 16 -20 33 -5 48 13 13 35 7 43 -12z"/>
<path d="M1060 1310 c-9 -6 -10 -10 -3 -10 6 0 15 5 18 10 8 12 4 12 -15 0z"/>
<path d="M928 1273 c6 -2 18 -2 25 0 6 3 1 5 -13 5 -14 0 -19 -2 -12 -5z"/>
<path d="M1264 1235 c-16 -12 -16 -14 -3 -15 9 0 22 7 29 15 16 19 0 19 -26 0z"/>
</g>
</svg>
